<mxfile host="app.diagrams.net" agent="Mozilla/5.0 (Windows NT 10.0; Win64; x64) AppleWebKit/537.36 (KHTML, like Gecko) Chrome/131.0.0.0 Safari/537.36" version="25.0.3">
  <diagram id="C5RBs43oDa-KdzZeNtuy" name="Page-1">
    <mxGraphModel dx="983" dy="390" grid="1" gridSize="10" guides="1" tooltips="1" connect="1" arrows="1" fold="1" page="1" pageScale="1" pageWidth="827" pageHeight="1169" math="0" shadow="0">
      <root>
        <mxCell id="WIyWlLk6GJQsqaUBKTNV-0" />
        <mxCell id="WIyWlLk6GJQsqaUBKTNV-1" parent="WIyWlLk6GJQsqaUBKTNV-0" />
        <mxCell id="a2CLyVPTFyQ0OVrmL87P-2" style="edgeStyle=orthogonalEdgeStyle;rounded=0;orthogonalLoop=1;jettySize=auto;html=1;exitX=0.5;exitY=1;exitDx=0;exitDy=0;exitPerimeter=0;entryX=0.5;entryY=0;entryDx=0;entryDy=0;" edge="1" parent="WIyWlLk6GJQsqaUBKTNV-1" source="nPA9T4uvbNw-xPwUVYOK-0" target="nPA9T4uvbNw-xPwUVYOK-1">
          <mxGeometry relative="1" as="geometry" />
        </mxCell>
        <mxCell id="nPA9T4uvbNw-xPwUVYOK-0" value="START" style="strokeWidth=2;html=1;shape=mxgraph.flowchart.start_1;whiteSpace=wrap;" parent="WIyWlLk6GJQsqaUBKTNV-1" vertex="1">
          <mxGeometry x="360" y="210" width="100" height="60" as="geometry" />
        </mxCell>
        <mxCell id="a2CLyVPTFyQ0OVrmL87P-3" style="edgeStyle=orthogonalEdgeStyle;rounded=0;orthogonalLoop=1;jettySize=auto;html=1;exitX=0.5;exitY=1;exitDx=0;exitDy=0;" edge="1" parent="WIyWlLk6GJQsqaUBKTNV-1" source="nPA9T4uvbNw-xPwUVYOK-1" target="a2CLyVPTFyQ0OVrmL87P-0">
          <mxGeometry relative="1" as="geometry" />
        </mxCell>
        <mxCell id="nPA9T4uvbNw-xPwUVYOK-1" value="READ MARK1,MARK2,MARK3" style="shape=parallelogram;html=1;strokeWidth=2;perimeter=parallelogramPerimeter;whiteSpace=wrap;rounded=1;arcSize=12;size=0.23;" parent="WIyWlLk6GJQsqaUBKTNV-1" vertex="1">
          <mxGeometry x="260" y="320" width="300" height="60" as="geometry" />
        </mxCell>
        <mxCell id="a2CLyVPTFyQ0OVrmL87P-0" value="AVERAGE = (MARK 1 + MARK 2 + MARK 3) / 3" style="rounded=1;whiteSpace=wrap;html=1;absoluteArcSize=1;arcSize=14;strokeWidth=2;" vertex="1" parent="WIyWlLk6GJQsqaUBKTNV-1">
          <mxGeometry x="250" y="420" width="320" height="60" as="geometry" />
        </mxCell>
        <mxCell id="a2CLyVPTFyQ0OVrmL87P-7" style="edgeStyle=orthogonalEdgeStyle;rounded=0;orthogonalLoop=1;jettySize=auto;html=1;exitX=0.5;exitY=1;exitDx=0;exitDy=0;" edge="1" parent="WIyWlLk6GJQsqaUBKTNV-1" source="a2CLyVPTFyQ0OVrmL87P-1" target="a2CLyVPTFyQ0OVrmL87P-5">
          <mxGeometry relative="1" as="geometry" />
        </mxCell>
        <mxCell id="a2CLyVPTFyQ0OVrmL87P-1" value="PRINT AVERAGE" style="shape=parallelogram;html=1;strokeWidth=2;perimeter=parallelogramPerimeter;whiteSpace=wrap;rounded=1;arcSize=12;size=0.23;" vertex="1" parent="WIyWlLk6GJQsqaUBKTNV-1">
          <mxGeometry x="320" y="510" width="170" height="60" as="geometry" />
        </mxCell>
        <mxCell id="a2CLyVPTFyQ0OVrmL87P-4" style="edgeStyle=orthogonalEdgeStyle;rounded=0;orthogonalLoop=1;jettySize=auto;html=1;exitX=0.5;exitY=1;exitDx=0;exitDy=0;entryX=0.552;entryY=0.076;entryDx=0;entryDy=0;entryPerimeter=0;" edge="1" parent="WIyWlLk6GJQsqaUBKTNV-1" source="a2CLyVPTFyQ0OVrmL87P-0" target="a2CLyVPTFyQ0OVrmL87P-1">
          <mxGeometry relative="1" as="geometry" />
        </mxCell>
        <mxCell id="a2CLyVPTFyQ0OVrmL87P-5" value="END" style="strokeWidth=2;html=1;shape=mxgraph.flowchart.terminator;whiteSpace=wrap;" vertex="1" parent="WIyWlLk6GJQsqaUBKTNV-1">
          <mxGeometry x="355" y="610" width="100" height="60" as="geometry" />
        </mxCell>
      </root>
    </mxGraphModel>
  </diagram>
</mxfile>
